<svg width="118" height="44" viewBox="0 0 118 44" fill="none" xmlns="http://www.w3.org/2000/svg">
<path d="M39.0194 30.3955L42.7645 12.7109H46.1415L42.3964 30.3955H39.0194ZM44.1377 31.3096H47.3877C47.3877 31.8851 47.5992 32.2998 48.0224 32.5537C48.4456 32.8161 49.0296 32.9473 49.7744 32.9473C50.1044 32.9473 50.4345 32.9007 50.7646 32.8076C51.0947 32.723 51.4078 32.5664 51.7041 32.3379C52.0003 32.1178 52.2627 31.8216 52.4912 31.4492C52.7281 31.0768 52.9059 30.6029 53.0244 30.0273L53.2656 28.9609C52.3684 30.1204 51.2047 30.7044 49.7744 30.7129C48.3525 30.7129 47.2184 30.3109 46.372 29.5068C45.5257 28.6943 45.1025 27.4671 45.1025 25.8252C45.1025 24.7165 45.2337 23.6247 45.496 22.5498C45.7669 21.4749 46.1689 20.5143 46.7021 19.668C47.2438 18.8132 47.9166 18.1276 48.7207 17.6113C49.5332 17.0866 50.4768 16.8242 51.5517 16.8242C52.5081 16.8242 53.3121 17.0358 53.9638 17.459C54.624 17.8822 55.0852 18.4492 55.3476 19.1602L55.7666 17.1416H59.0166L56.1982 30.3955C56.0035 31.2757 55.6862 32.0332 55.246 32.668C54.8059 33.3027 54.2854 33.8275 53.6845 34.2422C53.0921 34.6569 52.4404 34.9616 51.7294 35.1562C51.0185 35.3594 50.2906 35.4609 49.5459 35.4609C47.8955 35.4609 46.5794 35.1055 45.5976 34.3945C44.6243 33.6836 44.1377 32.6553 44.1377 31.3096ZM48.2255 26.1045C48.2255 26.7139 48.4202 27.2132 48.8095 27.6025C49.1988 27.9919 49.7828 28.1865 50.5615 28.1865C51.5009 28.1865 52.2669 27.9242 52.8593 27.3994C53.4602 26.8662 53.8707 26.0706 54.0908 25.0127L54.4589 23.2988C54.5605 22.8672 54.6113 22.4525 54.6113 22.0547C54.6113 21.5384 54.5393 21.1068 54.3955 20.7598C54.2516 20.4043 54.0527 20.125 53.7988 19.9219C53.5449 19.7103 53.2571 19.5622 52.9355 19.4775C52.6139 19.3929 52.2796 19.3506 51.9326 19.3506C51.2047 19.3506 50.5869 19.5664 50.0791 19.998C49.5712 20.4297 49.2285 21.0433 49.0507 21.8389L48.3017 25.4316C48.2509 25.6771 48.2255 25.9014 48.2255 26.1045ZM58.1172 30.3955L60.9229 17.1416H64.1729L63.7793 18.9316C64.2956 18.2207 64.8881 17.6917 65.5567 17.3447C66.2253 16.9977 67.0209 16.8242 67.9434 16.8242C68.4597 16.8242 68.9421 16.9131 69.3907 17.0908C69.8477 17.2601 70.237 17.5013 70.5586 17.8145C70.8802 18.1276 71.1341 18.5085 71.3203 18.957C71.515 19.4056 71.6123 19.9092 71.6123 20.4678C71.6123 20.7132 71.5912 20.9502 71.5489 21.1787C71.515 21.3988 71.4812 21.6019 71.4473 21.7881L69.6319 30.3955H66.3819L68.1719 21.9404C68.2058 21.805 68.2354 21.6696 68.2608 21.5342C68.2946 21.3903 68.3116 21.2253 68.3116 21.0391C68.3116 20.5228 68.155 20.1335 67.8418 19.8711C67.5287 19.6087 67.1097 19.4775 66.585 19.4775C65.5609 19.4775 64.7484 19.7949 64.1475 20.4297C63.555 21.056 63.1657 21.8219 62.9795 22.7275L61.3672 30.3955H58.1172ZM71.4239 30.3955L74.2296 17.1416H77.4796L74.6739 30.3955H71.4239ZM74.4835 15.6055L75.1183 12.7109H78.4698L77.8478 15.6055H74.4835ZM77.5578 19.6553L78.1164 17.1416H80.7316L81.6711 12.7109H84.9211L83.9816 17.1416H87.2824L86.7365 19.6553H83.4357L81.6965 27.8691H84.9973L84.4768 30.3955H77.926L80.1857 19.6553H77.5578ZM86.0149 25.4316C86.0149 24.2891 86.1757 23.1973 86.4973 22.1562C86.819 21.1152 87.276 20.2012 87.8684 19.4141C88.4693 18.627 89.1972 18.0007 90.052 17.5352C90.9153 17.0612 91.8928 16.8242 92.9846 16.8242C93.8141 16.8242 94.5589 16.9596 95.219 17.2305C95.8792 17.4928 96.4378 17.861 96.8948 18.335C97.3518 18.8005 97.7031 19.3421 97.9485 19.96C98.194 20.5693 98.3167 21.221 98.3167 21.915C98.3167 22.262 98.2744 22.6725 98.1897 23.1465C98.1135 23.612 97.9908 24.1748 97.8216 24.835H89.3157L89.1887 25.3809C89.138 25.6263 89.1126 25.8506 89.1126 26.0537C89.1126 26.7646 89.3411 27.2979 89.7981 27.6533C90.2551 28.0088 90.8137 28.1865 91.4739 28.1865C92.845 28.1865 93.7548 27.4756 94.2034 26.0537H97.4534C97.0048 27.5264 96.2727 28.6732 95.2571 29.4941C94.2415 30.3066 92.9296 30.7129 91.3216 30.7129C90.5598 30.7129 89.8531 30.6071 89.2014 30.3955C88.5497 30.1839 87.9869 29.8665 87.513 29.4434C87.0475 29.0202 86.6793 28.4785 86.4085 27.8184C86.1461 27.1497 86.0149 26.3542 86.0149 25.4316ZM89.8616 22.2578H95.0667C95.1175 22.0293 95.1513 21.8516 95.1682 21.7246C95.1852 21.5977 95.1936 21.4707 95.1936 21.3438C95.1936 20.7344 94.9778 20.2435 94.5462 19.8711C94.123 19.4902 93.5305 19.2998 92.7688 19.2998C92.1594 19.2998 91.5882 19.4945 91.055 19.8838C90.5218 20.2731 90.1747 20.8317 90.0139 21.5596L89.8616 22.2578ZM97.7855 30.3955L100.591 17.1416H108.005L107.459 19.6807H103.295L101.036 30.3955H97.7855ZM105.621 26.4727V26.0537H108.871V26.4727C108.871 27.0651 109.112 27.5221 109.594 27.8438C110.085 28.1569 110.661 28.3135 111.321 28.3135C111.981 28.3135 112.544 28.1823 113.009 27.9199C113.475 27.6491 113.707 27.2682 113.707 26.7773C113.707 26.2949 113.542 25.931 113.212 25.6855C112.891 25.4316 112.468 25.2243 111.943 25.0635L110.127 24.4922C109.298 24.2298 108.617 23.8109 108.083 23.2354C107.559 22.6514 107.296 21.9023 107.296 20.9883C107.296 20.362 107.419 19.7949 107.664 19.2871C107.918 18.7708 108.282 18.3307 108.756 17.9668C109.239 17.6029 109.81 17.3236 110.47 17.1289C111.139 16.9258 111.892 16.8242 112.73 16.8242C113.475 16.8242 114.152 16.9173 114.761 17.1035C115.379 17.2812 115.908 17.5436 116.348 17.8906C116.797 18.2376 117.139 18.6566 117.376 19.1475C117.622 19.6299 117.745 20.18 117.745 20.7979V21.2168H114.495V20.8232C114.495 20.3239 114.321 19.9303 113.974 19.6426C113.627 19.3548 113.157 19.2109 112.565 19.2109C111.956 19.2109 111.456 19.3379 111.067 19.5918C110.678 19.8457 110.483 20.2054 110.483 20.6709C110.483 20.984 110.567 21.2591 110.737 21.4961C110.914 21.7246 111.206 21.9108 111.613 22.0547L113.707 22.7275C114.156 22.863 114.579 23.0449 114.977 23.2734C115.383 23.4935 115.73 23.7516 116.018 24.0479C116.314 24.3441 116.547 24.6826 116.716 25.0635C116.894 25.4443 116.983 25.859 116.983 26.3076C116.983 26.9847 116.835 27.5941 116.539 28.1357C116.251 28.6689 115.845 29.126 115.32 29.5068C114.803 29.8877 114.181 30.1839 113.454 30.3955C112.726 30.6071 111.93 30.7129 111.067 30.7129C109.366 30.7129 108.033 30.332 107.068 29.5703C106.103 28.8001 105.621 27.7676 105.621 26.4727Z" fill="white"/>
<path fill-rule="evenodd" clip-rule="evenodd" d="M28.6998 5.11389C28.6579 4.95745 28.5857 4.81077 28.4872 4.68224C28.3888 4.5537 28.266 4.44583 28.126 4.36478C27.986 4.28373 27.8314 4.23108 27.6711 4.20986C27.5108 4.18863 27.348 4.19924 27.1919 4.24107L10.5025 8.71297L12.2636 12.0009L18.1981 22.4431L33.0999 21.5354L28.6998 5.11389ZM21.9683 23.2153L17.9478 23.4602L17.6367 23.4791L17.4827 23.2082L15.3715 19.4934C15.1466 19.9198 14.7021 20.2269 14.1488 20.5741C7.2493 24.9029 9.22991 31.0895 9.22991 31.0895C9.22991 31.0895 12.5351 23.369 15.0699 25.1826C16.551 26.2423 15.2539 27.7437 13.5176 29.7536C11.5361 32.0471 8.98264 35.0029 9.33227 38.7202C13.0081 30.4098 18.4128 32.9143 14.7562 36.2934C14.7562 36.2934 23.0278 31.2214 21.411 24.7669C21.4075 24.0869 21.6158 23.5819 21.9683 23.2153ZM25.7401 6.73562L23.6128 7.3238C22.8437 7.48837 22.3448 7.82457 21.9386 8.66342C21.7123 9.13082 21.1357 10.0751 20.4295 11.2318L20.4295 11.2318C19.1706 13.2937 17.4995 16.0305 16.6662 17.9434L18.8666 17.3302C19.6375 17.1212 19.9457 16.8723 20.4031 16.1789C20.71 15.7135 22.2016 13.049 23.7262 10.3252L23.7264 10.3249C24.428 9.07152 25.1366 7.80558 25.7401 6.73562ZM21.9531 18.8084L22.5101 20.9387C23.1126 19.9019 23.828 18.6799 24.5364 17.4699C26.0759 14.8404 27.5819 12.2681 27.8219 11.7785C28.1795 11.0489 28.2367 10.6619 28.0313 9.89187L27.4592 7.68586C26.2607 9.32613 24.7827 12.0889 23.6692 14.1704L23.6691 14.1705C23.0445 15.3381 22.5346 16.2913 22.2529 16.7118C21.7475 17.4665 21.7112 18.0611 21.9531 18.8084Z" fill="#82ffdd"/>
</svg>
