<svg width="420" height="96" viewBox="0 0 420 96" fill="none" xmlns="http://www.w3.org/2000/svg">
<mask id="mask0_3309_7834" style="mask-type:luminance" maskUnits="userSpaceOnUse" x="2" y="1" width="416" height="95">
<path d="M417.831 1.25586H2.8313V95.063H417.831V1.25586Z" fill="white"/>
</mask>
<g mask="url(#mask0_3309_7834)">
<path d="M195.067 88.1832V1.25586H207.117V83.0021H254.26L253.994 1.34448L266.315 1.25586V88.1832C266.315 89.0867 266.137 89.9816 265.791 90.8165C265.445 91.6513 264.938 92.4098 264.299 93.0485C263.66 93.6875 262.901 94.1943 262.066 94.5398C261.231 94.8855 260.336 95.0632 259.433 95.063H201.938C200.115 95.0606 198.367 94.3348 197.079 93.0448C195.79 91.7548 195.067 90.0062 195.067 88.1832Z" fill="black"/>
<path d="M357.181 88.1832V1.25586H369.231V83.0021H417.831V95.063H364.061C362.236 95.063 360.486 94.3382 359.197 93.048C357.905 91.7577 357.181 90.0078 357.181 88.1832Z" fill="black"/>
<path d="M120.771 95.063H132.823V54.3239H178.229V42.263H132.813V13.3168H177.479C178.129 13.3168 178.766 13.1324 179.316 12.785C179.866 12.4377 180.306 11.9415 180.585 11.3542L185.386 1.25586H127.64C125.817 1.25929 124.071 1.98559 122.783 3.27538C121.495 4.56519 120.771 6.31316 120.771 8.13578V95.063Z" fill="black"/>
<path d="M279.434 8.13578C279.434 7.23228 279.613 6.33766 279.959 5.50294C280.305 4.66824 280.811 3.90979 281.449 3.27094C282.09 2.63208 282.848 2.12531 283.682 1.77956C284.515 1.43381 285.41 1.25586 286.314 1.25586H344.051L339.248 11.3542C338.969 11.9417 338.529 12.438 337.98 12.7854C337.43 13.1328 336.793 13.317 336.144 13.3168H291.484V42.263H336.892V54.3239H291.484V83.0021H344.051V95.063H286.314C284.491 95.063 282.741 94.3382 281.449 93.048C280.16 91.7577 279.434 90.0078 279.434 88.1832V8.13578Z" fill="black"/>
<path d="M9.06926 1.25586C7.41522 1.25586 5.82889 1.91277 4.65911 3.08215C3.48933 4.25152 2.83187 5.83761 2.8313 7.49165V95.063H80.447C83.0736 95.0627 85.5925 94.0193 87.4501 92.1622L93.7376 85.8747C94.6575 84.9551 95.387 83.8632 95.8847 82.6617C96.3825 81.4601 96.6384 80.172 96.6384 78.8716V1.25586H9.06926ZM18.0307 13.3168H64.0804L33.5738 43.8237C32.8161 44.58 31.789 45.0054 30.7183 45.0059C29.9536 45.0059 29.2044 44.7885 28.5582 44.3795C27.9119 43.9705 27.3951 43.3865 27.0677 42.6953L15.2488 17.7067C15.0273 17.2378 14.9279 16.7206 14.9598 16.203C14.9918 15.6854 15.1541 15.1842 15.4317 14.7462C15.7092 14.3082 16.0931 13.9474 16.5475 13.6975C17.0019 13.4476 17.5121 13.3166 18.0307 13.3168ZM14.8922 83.0021V53.3188C14.8928 52.5584 15.1952 51.8294 15.7331 51.292C16.2709 50.7547 17.0001 50.4526 17.7605 50.4526H47.4417L14.8922 83.0021ZM55.0087 42.8877C53.6512 44.2434 51.8112 45.0051 49.8927 45.0059H40.0644L69.6354 15.4372C70.307 14.765 71.1047 14.2318 71.9824 13.868C72.8605 13.5042 73.8012 13.3169 74.7516 13.3168H84.5775L55.0087 42.8877Z" fill="black"/>
</g>
</svg>
